<?xml version="1.0" encoding="utf-8"?>
<!-- Generator: Adobe Illustrator 23.1.0, SVG Export Plug-In . SVG Version: 6.00 Build 0)  -->
<svg version="1.1" id="logo-orrm-dark" xmlns="http://www.w3.org/2000/svg" xmlns:xlink="http://www.w3.org/1999/xlink" x="0px"
	 y="0px" viewBox="0 0 256 256" style="enable-background:new 0 0 256 256;" xml:space="preserve">
<style type="text/css">
	.st0{fill:#D45050;}
	.st1{fill:#333336;}
</style>
<g>
	<circle class="st0" cx="137.1" cy="116.7" r="29"/>
</g>
<path class="st1" d="M137.1,39.5c-42.6,0-77.2,34.6-77.2,77.2c0,15.5,4.6,29.9,12.4,41.9l-36.2,36.2c-5.9,5.9-5.9,15.4,0,21.2
	c2.9,2.9,6.8,4.4,10.6,4.4c3.8,0,7.7-1.5,10.6-4.4l35.9-35.9c12.5,8.6,27.6,13.7,43.9,13.7c42.6,0,77.2-34.6,77.2-77.2
	S179.7,39.5,137.1,39.5z M137.1,163.9c-26,0-47.2-21.2-47.2-47.2s21.2-47.2,47.2-47.2s47.2,21.2,47.2,47.2S163.1,163.9,137.1,163.9z
	"/>
</svg>
